<?xml version="1.0" encoding="UTF-8" standalone="no"?>
<!-- Created with Inkscape (http://www.inkscape.org/) -->

<svg
   width="19.283106mm"
   height="18.763128mm"
   viewBox="0 0 19.283106 18.763129"
   version="1.1"
   id="svg5"
   xml:space="preserve"
   inkscape:export-filename="image.svg"
   inkscape:export-xdpi="96"
   inkscape:export-ydpi="96"
   xmlns:inkscape="http://www.inkscape.org/namespaces/inkscape"
   xmlns:sodipodi="http://sodipodi.sourceforge.net/DTD/sodipodi-0.dtd"
   xmlns="http://www.w3.org/2000/svg"
   xmlns:svg="http://www.w3.org/2000/svg"><sodipodi:namedview
     id="namedview7"
     pagecolor="#ffffff"
     bordercolor="#000000"
     borderopacity="0.25"
     inkscape:showpageshadow="2"
     inkscape:pageopacity="0.0"
     inkscape:pagecheckerboard="0"
     inkscape:deskcolor="#d1d1d1"
     inkscape:document-units="mm"
     showgrid="false" /><defs
     id="defs2" /><g
     inkscape:label="Calque 1"
     inkscape:groupmode="layer"
     id="layer1"
     transform="translate(31.983948,20.852581)"><g
       id="g601"><path
         style="fill:#ffffff;stroke-width:1"
         d="m -23.042487,-2.8176218 -0.21166,-0.211667 v -0.481289 -0.481289 l 0.27718,-0.277183 0.27718,-0.277183 h 0.34018 0.34018 l 0.35278,0.352778 0.35277,0.352778 v 0.325439 0.325439 l -0.32257,0.291922 -0.32257,0.291922 h -0.4359 -0.4359 z m -2.96145,-0.582083 -0.11068,-0.440972 0.10406,-0.414622 0.10407,-0.414621 0.70157,-0.776004 0.70157,-0.776003 0.007,0.89972 0.007,0.89972 -0.18517,0.531175 -0.18517,0.531176 -0.44049,0.200701 -0.44049,0.200702 h -0.0765 -0.0765 l -0.11067,-0.440972 z m 6.56972,0.241206 -0.32521,-0.189039 -0.24806,-0.593683 -0.24805,-0.593681 v -0.834017 -0.834017 l 0.61055,0.591768 0.61055,0.591769 0.27265,0.574571 0.27265,0.57457 -0.17328,0.455763 -0.17328,0.455762 -0.13666,-0.0054 -0.13666,-0.0054 z m -4.5997,-2.012326 0.0263,-1.177057 0.24445,-0.154808 0.24444,-0.154807 0.22049,-0.0027 0.22048,-0.0027 v 0.446637 0.446638 l -0.24575,0.567598 -0.24576,0.567599 -0.24546,0.320329 -0.24547,0.320329 z m 3.19508,0.838623 -0.28519,-0.315137 -0.27131,-0.649337 -0.27131,-0.649337 v -0.358443 -0.358443 l 0.13229,0.0024 0.13229,0.0024 0.38306,0.102747 0.38307,0.102747 0.0579,1.218159 0.0579,1.218158 -0.0168,-3.52e-4 -0.0168,-3.53e-4 -0.2852,-0.315136 z m -7.805737,-0.999144 -0.283277,-0.432336 0.114768,-0.361601 0.114768,-0.361602 0.35726,-0.1912 0.357261,-0.1912 0.430542,0.108059 0.430542,0.108059 0.195411,0.42888 0.195411,0.428881 -0.29367,0.448198 -0.293671,0.448197 h -0.521034 -0.521034 z m 2.395687,0.0279 0.004,-0.389319 0.32095,-0.705555 0.32095,-0.705556 0.26485,-0.219107 0.26486,-0.219108 0.20943,0.459665 0.20944,0.459664 -0.79911,0.854317 -0.79912,0.854317 z m 7.00055,-0.507904 -0.84487,-0.892021 0.27568,-0.420738 0.27567,-0.420739 h 0.0697 0.0697 l 0.35755,0.578528 0.35755,0.578529 0.16725,0.744388 0.16725,0.744388 -0.0253,-0.01016 -0.0254,-0.01016 z m 1.68197,0.708733 -0.21973,-0.219731 v -0.466551 -0.466551 l 0.35812,-0.324093 0.35812,-0.324093 0.46146,0.164463 0.46145,0.164464 0.18789,0.299373 0.18789,0.299372 -0.17283,0.494378 -0.17283,0.494377 -0.6149,0.05216 -0.61491,0.05216 z m -6.95265,-2.249851 -0.29473,-0.525122 0.21231,-0.176205 0.21232,-0.176204 0.45685,-0.173695 0.45685,-0.173694 0.19883,0.436375 0.19882,0.436376 v 0.344478 0.344478 l -0.22048,0.0024 -0.22049,0.0024 -0.35278,0.09176 -0.35277,0.09176 -0.29473,-0.525122 z m 3.38153,0.355349 -0.44097,-0.122662 0.005,-0.168436 0.005,-0.168436 0.14086,-0.573264 0.14086,-0.573264 0.11828,6.53e-4 0.11828,6.52e-4 0.57773,0.352242 0.57773,0.352242 -0.27358,0.529043 -0.27358,0.529057 -0.12776,-0.01758 -0.12777,-0.01758 z m -1.47288,-0.328586 -0.0826,-0.133635 -0.12384,-0.660115 -0.12384,-0.660115 h 0.65587 0.65586 l -0.11942,0.308681 -0.11942,0.30868 -0.0979,0.485069 -0.0979,0.48507 h -0.23212 -0.23213 z m -5.27709,-0.852635 0.840944,-0.809882 0.440976,0.152671 0.44097,0.152671 -0.0133,0.172141 -0.0132,0.172141 -0.944419,0.48507 -0.944416,0.485069 h -0.324255 -0.324246 l 0.840944,-0.809881 z m 10.73476,0.548695 -0.68952,-0.245702 -0.35424,-0.354245 -0.35425,-0.354246 0.48686,-0.221828 0.48686,-0.221827 0.29232,0.383536 0.29232,0.383535 0.60753,0.445982 0.60754,0.445981 -0.34295,-0.0077 -0.34295,-0.0077 z m -13.201107,-0.03679 -0.308681,-0.08067 v -0.149029 -0.149029 l 0.10957,-0.285533 0.109569,-0.285534 0.463694,-0.237202 0.463695,-0.237202 0.743179,-0.123462 0.74318,-0.123463 0.183339,0.11331 0.183339,0.11331 -0.18011,0.336538 -0.18011,0.336539 -0.761906,0.446507 -0.761905,0.446506 -0.249087,-0.02046 -0.249086,-0.02046 z m 14.750657,-0.158296 -0.55107,-0.271852 -0.48717,-0.508495 -0.48717,-0.508495 0.45279,-0.113642 0.45278,-0.113642 0.98004,0.284906 0.98005,0.284906 0.11436,0.455643 0.11435,0.455643 -0.24436,0.154756 -0.24436,0.154755 -0.26458,-0.0013 -0.26458,-0.0013 z m -9.67199,-0.589945 -0.10153,-0.164275 0.30018,-0.629475 0.30017,-0.629475 h 0.11298 0.11297 l 0.39277,0.418091 0.39278,0.41809 -0.63669,0.37566 -0.6367,0.375659 h -0.0677 -0.0677 z m 4.95742,-0.209786 -0.67953,-0.35847 0.4016,-0.427485 0.4016,-0.427484 0.10154,0.0014 0.10155,0.0014 0.38948,0.682195 0.38948,0.682195 -0.1102,0.110196 -0.1102,0.110198 -0.10289,-0.0078 -0.10289,-0.0078 z m -6.06734,-0.546777 -0.396872,-0.191405 0.0024,-0.193531 0.0024,-0.193532 0.106352,-0.3968752 0.10636,-0.396875 h 0.32072 0.32073 l 0.4518,0.171775 0.4518,0.171775 -0.2966,0.6219752 -0.2966,0.621975 -0.18782,-0.01194 -0.18781,-0.01194 z m 7.08346,-0.345196 -0.28983,-0.5604782 0.31902,-0.233272 0.31901,-0.233272 h 0.39001 0.39 l 0.19444,0.5577696 0.19444,0.5577696 -0.0449,0.01549 -0.0449,0.0155 -0.39449,0.220486 -0.39448,0.220486 h -0.17425 -0.17425 z m -4.61401,-0.313744 -0.57327,-0.6679722 v -0.868799 -0.8688 l 0.66146,-0.640978 0.66146,-0.640978 0.86355,0.0025 0.86356,0.0025 0.61962,0.646759 0.61962,0.646759 0.005,0.898849 0.005,0.898848 -0.64455,0.6445542 -0.64456,0.644553 -0.93192,-0.01493 -0.93192,-0.01493 z m -5.572193,0.123108 0.08397,-0.135871 0.64949,-0.3247952 0.649491,-0.324795 0.573264,-0.109247 0.573264,-0.109247 -0.0062,0.216076 -0.0063,0.216077 -0.214236,0.3527769 -0.214235,0.3527783 -1.086242,0.0011 -1.086241,0.0011 0.08397,-0.135872 z m 13.069873,0.09163 -1.01307,-0.06361 -0.11054,-0.4404192 -0.11054,-0.440419 0.0794,-0.07938 0.0794,-0.07938 0.86785,0.264413 0.86784,0.264413 0.44097,0.3484262 0.44098,0.348427 -0.26459,-0.02943 -0.26458,-0.02943 z m -14.509761,-1.1687932 -0.273336,-0.417164 0.174836,-0.459854 0.174837,-0.459855 0.446816,-0.112144 0.446817,-0.112144 0.266504,0.102267 0.266503,0.102268 0.199884,0.438697 0.199884,0.438697 -0.293671,0.448197 -0.29367,0.448198 h -0.521034 -0.521034 z m 15.646311,0.205496 -0.21166,-0.211666 v -0.48129 -0.48129 l 0.27718,-0.277182 0.27718,-0.277183 h 0.40104 0.40103 l 0.29192,0.32257 0.29192,0.322569 v 0.355648 0.355648 l -0.32257,0.291922 -0.32257,0.291921 h -0.4359 -0.4359 z m -10.57451,-0.339317 -0.57326,-0.164658 v -0.229945 -0.229946 l 0.65698,-0.201635 0.65699,-0.201635 0.1517,0.151697 0.15169,0.151696 -0.059,0.403403 -0.059,0.403403 -0.17639,0.04114 -0.17639,0.04114 z m 6.12951,-0.438026 v -0.636233 l 0.30868,0.119419 0.30868,0.119418 0.48507,0.09789 0.48507,0.09789 v 0.214615 0.214614 l -0.68192,0.204309 -0.68192,0.204309 h -0.11183 -0.11183 z m -8.554858,-0.881128 -0.705555,-0.257781 -0.304539,-0.303054 -0.304539,-0.303055 1.152647,0.0596 1.152646,0.0596 0.166128,0.43695 0.166129,0.43695 v 0.07671 0.07671 l -0.308681,-0.01243 -0.30868,-0.01243 z m 1.667538,-0.17979 -0.168232,-0.442482 v -0.224782 -0.224788 l 0.480682,-0.219011 0.48067,-0.219011 0.31307,0.386628 0.31308,0.386628 v 0.333237 0.333236 h -0.0453 -0.0453 l -0.58025,0.166416 -0.58026,0.166415 z m 7.63698,0.242516 -0.57327,-0.183899 v -0.159631 -0.159632 l 0.26911,-0.520407 0.26912,-0.520408 h 0.0924 0.0924 l 0.50495,0.261125 0.50496,0.261124 -0.19053,0.62082 -0.19054,0.62082 -0.10269,-0.01801 -0.1027,-0.01801 z m 1.36971,-0.07475 0.003,-0.322696 0.12959,-0.198544 0.12959,-0.198545 1.19063,-0.0744 1.19062,-0.0744 v 0.04502 0.04502 l -0.74965,0.431114 -0.74965,0.431115 -0.57327,0.119502 -0.57326,0.119503 0.003,-0.322695 z m -2.87236,-0.897514 -0.46426,-0.484584 0.69033,-0.378133 0.69034,-0.378133 0.15467,0.202279 0.15467,0.202278 -0.38074,0.660439 -0.38075,0.660438 z m -4.59422,-0.313157 -0.30308,-0.635558 0.10072,-0.162963 0.10072,-0.162963 0.71024,0.362342 0.71025,0.362342 -0.25585,0.385999 -0.25585,0.385998 -0.25204,0.05018 -0.25203,0.05018 z m -4.506194,-0.147212 -0.59299,-0.214598 -0.244857,-0.334862 -0.244857,-0.334862 v -0.13647 -0.13647 l 0.36528,-0.195492 0.36528,-0.195492 0.557632,0.194392 0.557632,0.194392 0.576394,0.558662 0.576393,0.558663 v 0.141787 0.141787 l -0.661458,-0.01342 -0.661458,-0.01342 z m 12.499244,0.09805 v -0.143388 l 0.48507,-0.453836 0.48506,-0.453836 0.57175,-0.288463 0.57174,-0.288463 0.44249,0.111059 0.4425,0.111059 v 0.321057 0.321056 l -0.27054,0.270535 -0.27053,0.270535 -0.65551,0.182053 -0.65551,0.182053 -0.57326,9.83e-4 -0.57326,9.84e-4 z m -10.814456,-0.946114 -0.84848,-0.846209 0.583897,0.107273 0.583897,0.107273 0.749652,0.427046 0.74965,0.427046 v 0.07623 0.07623 l -0.48507,0.235661 -0.485066,0.235662 z m 9.594016,0.489357 -0.20529,-0.247367 0.49237,-0.349976 0.49238,-0.349976 0.70556,-0.195423 0.70555,-0.195423 0.14936,-9.88e-4 0.14936,-9.8e-4 -0.85491,0.786747 -0.85492,0.786746 -0.28708,0.007 -0.28708,0.007 z m -4.51848,-0.678674 0.22109,-0.749653 0.26575,-0.05246 0.26574,-0.05246 0.0996,0.493435 0.0996,0.493434 0.11942,0.308681 0.11942,0.308681 h -0.70582 -0.70582 z m -1.44395,0.225406 -0.56829,-0.346457 0.30266,-0.527343 0.30265,-0.527343 0.44202,0.103523 0.44202,0.103524 0.15998,0.14603 0.15999,0.14603 -0.16262,0.56703 -0.16263,0.56703 -0.17375,0.05722 -0.17375,0.05722 z m 2.89127,0.05193 -0.0901,-0.321437 -0.10797,-0.377608 -0.10796,-0.377608 0.56126,-0.195656 0.56126,-0.195656 h 0.0573 0.0573 l 0.28165,0.544651 0.28165,0.544651 -0.32122,0.243489 -0.32122,0.243489 -0.11786,0.0056 -0.11787,0.0056 -0.26307,0.100951 -0.26308,0.100951 z m -4.42388,-1.678987 -0.45675,-0.916577 10e-4,-0.450437 0.001,-0.450436 0.33658,0.510551 0.33658,0.510551 0.49412,0.393994 0.49411,0.393994 -0.21071,0.462469 -0.21072,0.462468 h -0.16439 -0.1644 z m 5.93558,0.49807 -0.19068,-0.418507 0.8492,-0.904512 0.8492,-0.904512 -0.16728,0.744491 -0.16727,0.74449 -0.35755,0.578529 -0.35755,0.578528 h -0.13369 -0.13369 z m -8.803114,-0.748346 -0.302254,-0.461298 0.260854,-0.464743 0.260854,-0.464744 h 0.603834 0.603834 l 0.260854,0.464744 0.260854,0.464743 -0.302254,0.461298 -0.302254,0.461298 h -0.521034 -0.521034 z m 11.154634,0.184115 -0.27718,-0.277182 v -0.415774 -0.415774 l 0.27718,-0.277182 0.27719,-0.277183 h 0.40103 0.40104 l 0.29192,0.32257 0.29192,0.322569 v 0.355648 0.355648 l -0.32257,0.291921 -0.32257,0.291922 h -0.37039 -0.37038 z m -6.23989,-0.05054 -0.23008,-0.145927 -0.0567,-1.170208 -0.0567,-1.170209 0.32733,0.416133 0.32733,0.416133 0.17992,0.473214 0.17991,0.473214 v 0.42949 0.429489 l -0.22048,-0.0027 -0.22049,-0.0027 z m 2.16584,-0.504034 0.12295,-0.655363 0.23783,-0.459915 0.23783,-0.459914 0.23212,-0.193313 0.23211,-0.193313 -0.0611,1.176299 -0.0611,1.176299 -0.20352,0.12959 -0.20351,0.129591 -0.32831,0.0027 -0.32832,0.0027 z m -3.5462,-0.435673 -0.5521,-0.584658 -0.19755,-0.385279 -0.19756,-0.385279 0.003,-0.408471 0.003,-0.408471 0.15863,-0.250636 0.15863,-0.250636 0.4639,0.303958 0.4639,0.303958 0.1766,0.464489 0.1766,0.464489 -0.0522,0.860596 -0.0522,0.860598 z m 4.91933,-0.482467 0.0984,-1.084942 0.26937,-0.411123 0.26938,-0.411123 0.37382,-0.09776 0.37382,-0.09776 0.16234,0.42699 0.16234,0.426991 -0.17641,0.46401 -0.17642,0.464009 -0.36065,0.506488 -0.36065,0.506488 -0.36685,0.196333 -0.36685,0.196332 z m -2.73563,-0.733681 -0.30868,-0.17979 v -0.60239 -0.60239 l 0.34118,-0.182595 0.34118,-0.182595 h 0.33703 0.33704 l 0.29192,0.322569 0.29192,0.32257 v 0.355648 0.355648 l -0.32257,0.291921 -0.32257,0.291921 -0.33889,-0.0054 -0.33888,-0.0054 z"
         id="path302" /></g></g></svg>
